<?xml version="1.0" encoding="utf-8"?>
<!-- Generator: Adobe Illustrator 26.2.0, SVG Export Plug-In . SVG Version: 6.00 Build 0)  -->
<svg version="1.1" id="Layer_1" xmlns="http://www.w3.org/2000/svg" xmlns:xlink="http://www.w3.org/1999/xlink" x="0px" y="0px"
	 viewBox="0 0 721.3905 185.03078" style="enable-background:new 0 0 721.3905 185.03078;" xml:space="preserve">
<style type="text/css">
	.st0{fill:#FFFFFF;}
</style>
<g>
	<path class="st0" d="M208.30817,53.06419c-0.33032-0.8999-1.11865-1.53833-2.0675-1.67432
		c-0.49036-0.07031-12.19702-1.67554-28.61353,2.44104c-15.0918,3.78418-37.17566,13.35144-56.68165,37.43933
		c-6.51709,8.04785-11.35925,16.03223-14.97864,23.68774c-3.61938-7.65552-8.46155-15.63989-14.97864-23.68774
		C71.48223,67.18235,49.39825,57.61509,34.30645,53.83091c-16.4165-4.11658-28.12305-2.51135-28.6134-2.44104
		c-0.94885,0.13599-1.73718,0.77441-2.06763,1.67432c-0.17065,0.46497-4.17468,11.58203-3.56165,28.49597
		c0.56409,15.54846,5.33044,39.13916,24.83643,63.22706c19.50586,24.08777,41.59033,33.65503,56.68151,37.43921
		c10.78467,2.70398,19.51038,2.93616,24.38513,2.75928c4.87476,0.17688,13.60034-0.0553,24.38502-2.75928
		c15.09131-3.78418,37.17578-13.35144,56.68164-37.43921c19.50598-24.0879,24.27234-47.6786,24.83643-63.22706
		C212.48285,64.64622,208.47882,53.52916,208.30817,53.06419z M95.74285,164.70604c-2.7627-0.32971-5.91113-0.86804-9.33521-1.72644
		c-0.37805-0.0946-0.76025-0.19409-1.14917-0.29822c-11.84766-3.17468-29.26123-11.02222-44.93762-30.38184
		c-16.05981-19.83179-19.9729-38.92994-20.42749-51.45838c-0.12781-3.52783,0.00037-6.71912,0.2522-9.48999
		c2.7627,0.32971,5.91125,0.86804,9.33508,1.72632c0.37805,0.09473,0.76062,0.19421,1.14954,0.29846
		c11.84717,3.17444,29.2605,11.02197,44.9375,30.38123c16.06067,19.83411,19.97339,38.93055,20.42737,51.45936
		C96.1231,158.74388,95.99493,161.93517,95.74285,164.70604z M192.04022,80.84116
		c-0.45447,12.52844-4.36755,31.62659-20.42737,51.45838c-15.67639,19.35962-33.08997,27.20715-44.93763,30.38184
		c-0.38892,0.10413-0.77124,0.20361-1.14917,0.29822c-3.42407,0.8584-6.57251,1.39673-9.33521,1.72644
		c-0.25208-2.77087-0.38025-5.96216-0.2522-9.4895c0.45386-12.52881,4.36658-31.62525,20.42738-51.45936
		c15.677-19.35925,33.09033-27.20679,44.9375-30.38123c0.38892-0.10425,0.77148-0.20374,1.14941-0.29846
		c3.42383-0.85828,6.57251-1.39661,9.33521-1.72632C192.03998,74.12205,192.16815,77.31333,192.04022,80.84116z"/>
	<circle class="st0" cx="107.98036" cy="28.34646" r="28.34646"/>
</g>
<g>
	<path class="st0" d="M262.54892,39.20148c0.09381-0.74947,0.65585-1.40514,1.68634-1.40514h1.49878
		c0.74945,0,1.31152,0.37465,1.59253,0.9367l20.60922,44.21609c0.18723,0,0.18723,0,0.28101,0l20.60904-44.21609
		c0.28101-0.56206,0.74945-0.9367,1.59253-0.9367h1.49896c1.0303,0,1.59238,0.65567,1.68616,1.40514l11.05389,62.95153
		c0.28104,1.31152-0.46826,2.15461-1.68619,2.15461h-8.52463c-0.84308,0-1.59256-0.74947-1.77997-1.40514l-5.52695-35.50387
		c-0.0936,0-0.28101,0-0.28101,0l-16.39362,36.81539c-0.18741,0.56205-0.74945,1.03031-1.59256,1.03031h-1.68616
		c-0.84308,0-1.31152-0.46826-1.59256-1.03031l-16.58099-36.81539c0,0-0.18741,0-0.28104,0l-5.43332,35.50387
		c-0.09363,0.65567-0.84311,1.40514-1.68619,1.40514h-8.43102c-1.21773,0-1.96719-0.84309-1.77995-2.15461L262.54892,39.20148z"/>
	<path class="st0" d="M350.41602,40.51301c0-0.93688,0.84311-1.77996,1.77997-1.77996h8.71207
		c0.93668,0,1.77979,0.84308,1.77979,1.77996v62.01466c0,0.93687-0.84311,1.77996-1.77979,1.77996h-8.71207
		c-0.93686,0-1.77997-0.84309-1.77997-1.77996V40.51301z"/>
	<path class="st0" d="M392.48517,40.51301c0-0.93688,0.74945-1.77996,1.77997-1.77996h26.79181
		c11.2413,0,20.42178,8.99308,20.42178,20.14076c0,8.61843-5.71436,15.64431-13.86435,18.92303l12.83386,23.79413
		c0.65585,1.2179,0,2.71666-1.59256,2.71666h-9.83615c-0.84308,0-1.31134-0.46844-1.49875-0.84309l-12.45923-24.82462h-10.39822
		v23.88774c0,0.93687-0.84308,1.77996-1.77994,1.77996h-8.61826c-1.03052,0-1.77997-0.84309-1.77997-1.77996V40.51301z
		 M420.02646,68.61635c4.96506,0,9.27411-4.30922,9.27411-9.55513c0-4.96489-4.30905-9.08669-9.27411-9.08669h-15.2695v18.64183
		H420.02646z"/>
	<path class="st0" d="M461.30768,101.87199l29.13385-63.04515c0.28101-0.56206,0.74945-1.0305,1.59253-1.0305h0.93671
		c0.93689,0,1.31152,0.46844,1.59256,1.0305l28.85281,63.04515c0.56207,1.21791-0.18744,2.43564-1.59259,2.43564h-8.14996
		c-1.40515,0-2.06082-0.56206-2.71667-1.87358l-4.59024-10.11719h-28.00955l-4.59024,10.11719
		c-0.37482,0.93688-1.2179,1.87358-2.71664,1.87358h-8.14999C461.49509,104.30762,460.74561,103.0899,461.30768,101.87199z
		 M501.77661,81.91864l-9.36789-20.6092h-0.28104l-9.18048,20.6092H501.77661z"/>
	<path class="st0" d="M571.565,37.79634c9.46173,0,16.29999,2.99769,22.67023,8.71205
		c0.84326,0.74947,0.84326,1.87358,0.09357,2.62305l-5.71417,5.90159c-0.65601,0.74947-1.59253,0.74947-2.34216,0
		c-3.93439-3.46613-9.18048-5.52694-14.42627-5.52694c-11.99072,0-20.89038,10.02357-20.89038,21.82693
		c0,11.70974,8.99323,21.63951,20.98401,21.63951c5.62061,0,10.39825-2.15443,14.33264-5.33953
		c0.74963-0.65585,1.78015-0.56206,2.34216,0l5.8078,5.99538c0.74963,0.65567,0.56207,1.87358-0.09363,2.52925
		c-6.37018,6.1828-14.42657,9.08669-22.76379,9.08669c-18.73541,0-33.81769-14.89466-33.81769-33.63029
		S552.82959,37.79634,571.565,37.79634z"/>
	<path class="st0" d="M619.11414,40.51301c0-0.93688,0.74927-1.77996,1.77979-1.77996h8.61841
		c0.93652,0,1.77979,0.84308,1.77979,1.77996v52.55331h23.88794c1.03046,0,1.77979,0.84309,1.77979,1.77979v7.68156
		c0,0.93687-0.74933,1.77996-1.77979,1.77996h-34.28613c-1.03052,0-1.77979-0.84309-1.77979-1.77996V40.51301z"/>
	<path class="st0" d="M679.11316,40.51301c0-0.93688,0.74927-1.77996,1.77979-1.77996h38.12689
		c1.03052,0,1.77979,0.84308,1.77979,1.77996v7.68155c0,0.93688-0.74927,1.77996-1.77979,1.77996h-27.7287v15.36311h23.13831
		c0.93689,0,1.78015,0.84308,1.78015,1.77996v7.77517c0,1.03049-0.84326,1.77996-1.78015,1.77996h-23.13831v16.3936h27.7287
		c1.03052,0,1.77979,0.84309,1.77979,1.77979v7.68156c0,0.93687-0.74927,1.77996-1.77979,1.77996h-38.12689
		c-1.03052,0-1.77979-0.84309-1.77979-1.77996V40.51301z"/>
	<path class="st0" d="M251.46407,122.93478c0-0.51579,0.41255-0.97995,0.97995-0.97995h20.99095
		c0.56723,0,0.97995,0.46416,0.97995,0.97995v4.22913c0,0.51578-0.41272,0.97995-0.97995,0.97995h-15.26608v9.69609h12.73898
		c0.51559,0,0.97977,0.46417,0.97977,0.97995v4.22913c0,0.51561-0.46417,0.97977-0.97977,0.97977h-12.73898v13.04849
		c0,0.51579-0.46417,0.97995-0.97995,0.97995h-4.74492c-0.5674,0-0.97995-0.46416-0.97995-0.97995V122.93478z"/>
	<path class="st0" d="M311.50903,121.43905c10.31491,0,18.56689,8.3036,18.56689,18.61851
		c0,10.31511-8.25198,18.51547-18.56689,18.51547c-10.31509,0-18.51547-8.20036-18.51547-18.51547
		C292.99356,129.74265,301.19394,121.43905,311.50903,121.43905z M311.50903,151.86821
		c6.49835,0,11.86209-5.31212,11.86209-11.81065c0-6.49835-5.36374-11.9137-11.86209-11.9137
		c-6.49854,0-11.81067,5.41534-11.81067,11.9137C299.69836,146.55609,305.0105,151.86821,311.50903,151.86821z"/>
	<path class="st0" d="M352.1926,122.93478c0-0.51579,0.46417-0.97995,0.97995-0.97995h4.89957
		c0.56741,0,0.97995,0.46416,0.97995,0.97995v21.09401c0,4.38397,2.99149,7.83942,7.4783,7.83942
		c4.48703,0,7.53012-3.45544,7.53012-7.7878v-21.14563c0-0.51579,0.41254-0.97995,0.97977-0.97995H379.94
		c0.51559,0,0.97977,0.46416,0.97977,0.97995v21.45512c0,7.83943-6.24048,14.18312-14.3894,14.18312
		c-8.09711,0-14.33777-6.34369-14.33777-14.18312V122.93478z"/>
	<path class="st0" d="M405.55359,122.36739c0-0.5156,0.46417-0.92834,0.97995-0.92834h1.28928l21.45514,22.7962h0.05161v-21.30046
		c0-0.51579,0.41275-0.97995,0.97995-0.97995h4.7449c0.51578,0,0.97995,0.46416,0.97995,0.97995v34.7099
		c0,0.51578-0.46417,0.92834-0.97995,0.92834h-1.23782l-21.5582-23.67293h-0.05161v22.17719
		c0,0.51579-0.41257,0.97995-0.97995,0.97995h-4.6933c-0.51578,0-0.97995-0.46416-0.97995-0.97995V122.36739z"/>
	<path class="st0" d="M461.03964,122.93478c0-0.51579,0.41257-0.97995,0.92834-0.97995h12.22321
		c9.95398,0,18.10291,8.09731,18.10291,17.99968c0,10.00542-8.14893,18.10272-18.10291,18.10272h-12.22321
		c-0.51578,0-0.92834-0.46416-0.92834-0.97995V122.93478z M473.57236,151.76517c6.7048,0,11.60437-5.05441,11.60437-11.81065
		c0-6.7048-4.89957-11.75905-11.60437-11.75905h-5.87952v23.5697H473.57236z"/>
	<path class="st0" d="M508.6601,156.71635l16.03979-34.70991c0.15466-0.3095,0.41254-0.5674,0.87671-0.5674h0.51581
		c0.51575,0,0.72205,0.2579,0.87689,0.5674l15.88495,34.70991c0.30969,0.67044-0.10327,1.34088-0.87677,1.34088h-4.48682
		c-0.77386,0-1.13477-0.30949-1.49573-1.03156l-2.52728-5.57002h-15.42096l-2.5271,5.57002
		c-0.2063,0.51578-0.67047,1.03156-1.49573,1.03156h-4.48703C508.76334,158.05724,508.35062,157.3868,508.6601,156.71635z
		 M530.94067,145.7308l-5.15778-11.34648h-0.15466l-5.05444,11.34648H530.94067z"/>
	<path class="st0" d="M565.56964,128.14386h-7.89124c-0.56738,0-0.97992-0.46417-0.97992-0.97995v-4.22913
		c0-0.51579,0.41254-0.97995,0.97992-0.97995h22.53815c0.56738,0,0.97992,0.46416,0.97992,0.97995v4.22913
		c0,0.51578-0.41254,0.97995-0.97992,0.97995h-7.89087v28.93343c0,0.51579-0.46417,0.97995-0.97992,0.97995h-4.79657
		c-0.51538,0-0.97955-0.46416-0.97955-0.97995V128.14386z"/>
	<path class="st0" d="M601.97192,122.93478c0-0.51579,0.46417-0.97995,0.97998-0.97995h4.79651
		c0.51575,0,0.97992,0.46416,0.97992,0.97995v34.1425c0,0.51579-0.46417,0.97995-0.97992,0.97995h-4.79651
		c-0.51581,0-0.97998-0.46416-0.97998-0.97995V122.93478z"/>
	<path class="st0" d="M649.74634,121.43905c10.31494,0,18.56708,8.3036,18.56708,18.61851
		c0,10.31511-8.25214,18.51547-18.56708,18.51547s-18.51508-8.20036-18.51508-18.51547
		C631.23126,129.74265,639.4314,121.43905,649.74634,121.43905z M649.74634,151.86821c6.49835,0,11.8623-5.31212,11.8623-11.81065
		c0-6.49835-5.36395-11.9137-11.8623-11.9137s-11.81067,5.41534-11.81067,11.9137
		C637.93567,146.55609,643.24799,151.86821,649.74634,151.86821z"/>
	<path class="st0" d="M690.90991,122.36739c0-0.5156,0.46417-0.92834,0.97998-0.92834h1.28925l21.45532,22.7962h0.05164v-21.30046
		c0-0.51579,0.41254-0.97995,0.97992-0.97995h4.74457c0.51575,0,0.97992,0.46416,0.97992,0.97995v34.7099
		c0,0.51578-0.46417,0.92834-0.97992,0.92834h-1.23767l-21.55817-23.67293h-0.05164v22.17719
		c0,0.51579-0.41254,0.97995-0.97992,0.97995h-4.6933c-0.51581,0-0.97998-0.46416-0.97998-0.97995V122.36739z"/>
</g>
</svg>
