<svg width="1220" height="238" viewBox="0 0 1220 238" fill="none" xmlns="http://www.w3.org/2000/svg">
<g clip-path="url(#clip0_4789_39263)">
<path d="M275.09 70.5702H319.03V191.95H342.73V70.5702H386.66V48.9102H275.09V70.5702Z" fill="#1D334B"/>
<path d="M455.52 87.3301C447.48 87.3301 440.53 89.3401 434.68 93.3601C430.87 95.9701 427.64 99.3801 424.95 103.54L424.87 47.0801H401.99L402.19 191.95H425.07L425 138.62H425.07C425.07 128.95 427.14 121.52 431.3 116.35C435.45 111.18 441.41 108.66 449.18 108.79C453.54 108.79 457.39 109.68 460.73 111.45C464.07 113.22 466.69 116.32 468.6 120.75C470.5 125.18 471.46 131.48 471.46 139.65V191.96H494.35V133.52C494.35 117.86 490.94 106.24 484.13 98.6801C477.31 91.1101 467.78 87.3301 455.52 87.3301Z" fill="#1D334B"/>
<path d="M536.23 108.18V89.7801H513.35V191.95H536.23V137.19C536.23 130.92 537.93 125.88 541.34 122.07C544.74 118.26 549.21 115.5 554.72 113.8C560.24 112.1 566.13 111.24 572.4 111.24V89.3801C565.05 89.3801 558 91.1101 551.25 94.5901C545.24 97.6801 540.23 102.22 536.23 108.18Z" fill="#1D334B"/>
<path d="M588.94 191.95H611.63L611.83 89.78H589.15L588.94 191.95Z" fill="#1D334B"/>
<path d="M600.39 43.6001C596.71 43.6001 593.54 44.9001 590.89 47.4801C588.24 50.0701 586.91 53.2001 586.91 56.8801C586.91 60.5601 588.24 63.7301 590.89 66.3801C593.54 69.0401 596.71 70.3601 600.39 70.3601C604.07 70.3601 607.24 69.0301 609.89 66.3801C612.54 63.7201 613.87 60.5601 613.87 56.8801C613.87 53.2001 612.54 50.0701 609.89 47.4801C607.23 44.9001 604.06 43.6001 600.39 43.6001Z" fill="#1D334B"/>
<path d="M681.28 166.87L651.06 89.78H627.56L669.86 191.95H671.5H691.11H692.95L735.04 89.78H711.34L681.28 166.87Z" fill="#1D334B"/>
<path d="M829.44 146.38H841.5C841.5 134.12 839.32 123.57 834.97 114.71C830.61 105.86 824.78 99.0801 817.5 94.3801C810.21 89.6801 802 87.3301 792.88 87.3301C782.8 87.3301 773.84 89.6101 766.01 94.1801C758.17 98.7401 752.02 105.04 747.52 113.08C743.03 121.12 740.78 130.38 740.78 140.87C740.78 151.36 742.99 160.62 747.42 168.66C751.85 176.7 757.91 183 765.61 187.56C773.3 192.12 782.13 194.41 792.07 194.41C799.84 194.41 806.75 193.32 812.81 191.14C818.87 188.96 824.12 185.83 828.54 181.74C832.97 177.65 836.61 172.89 839.47 167.44L818.42 158.45C816.24 162.81 813.17 166.39 809.23 169.18C805.27 171.97 800.24 173.37 794.11 173.37C788.52 173.37 783.45 172.11 778.89 169.59C774.32 167.07 770.71 163.43 768.06 158.66C766.08 155.11 764.84 151.02 764.34 146.4H818.43H829.44V146.38ZM765.56 128.2C766.04 126.27 766.6 124.43 767.32 122.79C769.5 117.82 772.7 114.04 776.92 111.45C781.14 108.86 786.18 107.57 792.04 107.57C797.63 107.57 802.36 108.97 806.24 111.76C810.12 114.55 813.12 118.81 815.23 124.53C815.66 125.69 816.03 126.92 816.37 128.21H765.56V128.2Z" fill="#1D334B"/>
<path d="M1010.48 48.9102L978.99 155.93L948.57 48.9102H946.94H926.71H925.07L894.63 157.07L862.95 48.9102H839.05L881.75 191.95H884.82H904.84H906.88L936.74 85.3202L966.14 191.95H968.39H989.23H991.28L1034.59 48.9102H1010.48Z" fill="#1D334B"/>
<path d="M1119.39 146.38H1131.45C1131.45 134.12 1129.27 123.57 1124.92 114.71C1120.56 105.86 1114.73 99.0801 1107.45 94.3801C1100.16 89.6801 1091.95 87.3301 1082.83 87.3301C1072.75 87.3301 1063.79 89.6101 1055.96 94.1801C1048.12 98.7401 1041.97 105.04 1037.47 113.08C1032.98 121.12 1030.73 130.38 1030.73 140.87C1030.73 151.36 1032.94 160.62 1037.37 168.66C1041.8 176.7 1047.86 183 1055.56 187.56C1063.25 192.12 1072.08 194.41 1082.02 194.41C1089.79 194.41 1096.7 193.32 1102.76 191.14C1108.82 188.96 1114.07 185.83 1118.49 181.74C1122.92 177.65 1126.56 172.89 1129.42 167.44L1108.37 158.45C1106.19 162.81 1103.12 166.39 1099.18 169.18C1095.22 171.97 1090.19 173.37 1084.06 173.37C1078.47 173.37 1073.4 172.11 1068.84 169.59C1064.27 167.07 1060.66 163.43 1058.01 158.66C1056.03 155.11 1054.79 151.02 1054.29 146.4H1108.38H1119.39V146.38ZM1055.51 128.2C1055.99 126.27 1056.55 124.43 1057.27 122.79C1059.45 117.82 1062.65 114.04 1066.87 111.45C1071.09 108.86 1076.13 107.57 1081.99 107.57C1087.58 107.57 1092.31 108.97 1096.19 111.76C1100.07 114.55 1103.07 118.81 1105.18 124.53C1105.61 125.69 1105.98 126.92 1106.32 128.21H1055.51V128.2Z" fill="#1D334B"/>
<path d="M1171.9 48.9102H1149.02V191.94H1171.9V48.9102Z" fill="#1D334B"/>
<path d="M1220.12 48.9102H1197.24V191.94H1220.12V48.9102Z" fill="#1D334B"/>
<path d="M153.45 119C160.81 114.78 168.29 108.98 175.19 102.08C201.08 76.19 196.69 48.37 196.49 47.2L195.6 41.96L190.36 41.07C189.19 40.87 161.38 36.47 135.48 62.37C128.58 69.27 122.78 76.75 118.56 84.11C114.34 76.75 108.54 69.27 101.64 62.37C75.75 36.48 47.93 40.87 46.76 41.07L41.52 41.96L40.63 47.2C40.43 48.37 36.04 76.18 61.93 102.08C68.83 108.98 76.32 114.78 83.67 119C76.31 123.22 68.83 129.02 61.93 135.92C36.04 161.81 40.43 189.63 40.63 190.8L41.52 196.04L46.76 196.93C47.07 196.98 49.25 197.33 52.78 197.33C62.55 197.33 82.61 194.66 101.64 175.63C108.54 168.73 114.34 161.24 118.56 153.89C122.78 161.25 128.58 168.73 135.48 175.63C154.51 194.66 174.57 197.33 184.34 197.33C187.86 197.33 190.05 196.98 190.36 196.93L195.6 196.04L196.49 190.8C196.69 189.63 201.08 161.82 175.19 135.92C168.29 129.02 160.81 123.22 153.45 119ZM146.09 72.98C159.97 59.1 174.1 56.16 181.85 55.71C181.4 63.48 178.45 77.61 164.58 91.48C146.09 109.97 129.55 113.37 126.87 110.69C124.2 108 127.6 91.46 146.09 72.98ZM55.27 55.71C63.04 56.16 77.17 59.11 91.04 72.98C109.53 91.47 112.93 108 110.25 110.69C107.57 113.38 91.03 109.97 72.54 91.48C58.67 77.6 55.72 63.46 55.27 55.71ZM91.04 165.02C77.16 178.9 63.03 181.85 55.28 182.29C55.73 174.52 58.68 160.39 72.55 146.52C87.47 131.6 101.12 126.5 107.24 126.5C108.7 126.5 109.74 126.79 110.25 127.31C112.93 130 109.52 146.54 91.04 165.02ZM146.09 165.02C127.6 146.54 124.2 130 126.88 127.31C127.34 126.85 128.41 126.5 130.08 126.5C132.14 126.5 135.11 127.04 138.99 128.58C147.07 131.79 156.4 138.33 164.59 146.53C178.47 160.41 181.42 174.54 181.86 182.29C174.08 181.84 159.96 178.89 146.09 165.02Z" fill="#1D334B"/>
<path d="M118.52 51.3801C118.53 51.3801 118.54 51.3801 118.54 51.3801C125.41 51.3801 131.83 48.7401 136.61 43.9501C141.38 39.1801 144.1 32.5701 144.09 25.8101C144.06 11.7601 132.75 0.320068 118.87 0.320068C118.87 0.320068 118.87 0.320068 118.86 0.320068C111.91 0.320068 105.42 2.93006 100.58 7.66006C95.7 12.4401 93.02 18.8701 93.02 25.7901C93.03 40.1201 104.23 51.3601 118.52 51.3801ZM111.09 18.3701C113.1 16.4001 115.86 15.3101 118.87 15.3101C124.4 15.3101 129.08 20.1301 129.09 25.8401C129.1 28.6301 127.97 31.3701 126 33.3401C124.62 34.7201 122.21 36.3701 118.54 36.3701H118.53C112.64 36.3701 108.03 31.7101 108.03 25.7801C108.03 22.9401 109.12 20.3001 111.09 18.3701Z" fill="#1D334B"/>
<path d="M118.61 186.62C118.6 186.62 118.59 186.62 118.59 186.62C111.72 186.62 105.3 189.26 100.52 194.05C95.75 198.82 93.0301 205.43 93.0401 212.18C93.0701 226.23 104.38 237.67 118.25 237.67H118.26C125.21 237.67 131.7 235.06 136.53 230.33C141.41 225.55 144.09 219.12 144.09 212.2C144.09 197.88 132.9 186.64 118.61 186.62ZM126.04 219.63C124.03 221.6 121.27 222.69 118.26 222.69C112.73 222.69 108.05 217.87 108.04 212.16C108.03 209.37 109.16 206.63 111.13 204.66C112.51 203.28 114.93 201.63 118.59 201.63H118.6C124.49 201.63 129.1 206.29 129.1 212.22C129.09 215.06 128.01 217.7 126.04 219.63Z" fill="#1D334B"/>
<path d="M229.91 101.03C225.13 96.15 218.7 93.47 211.78 93.47C197.44 93.47 186.2 104.67 186.19 118.96C186.18 125.84 188.82 132.26 193.62 137.05C198.38 141.8 204.97 144.53 211.7 144.53C211.72 144.53 211.74 144.53 211.75 144.53C225.8 144.5 237.24 133.19 237.24 119.32C237.25 112.36 234.64 105.87 229.91 101.03ZM211.72 129.53C211.71 129.53 211.7 129.53 211.7 129.53C208.91 129.53 206.19 128.4 204.22 126.44C202.84 125.06 201.19 122.64 201.19 118.97C201.19 113.08 205.85 108.47 211.78 108.47C214.63 108.47 217.26 109.56 219.19 111.53C221.16 113.54 222.25 116.31 222.25 119.31C222.25 124.84 217.42 129.52 211.72 129.53Z" fill="#1D334B"/>
<path d="M50.94 119.04C50.95 112.16 48.31 105.74 43.51 100.95C38.75 96.2 32.16 93.47 25.43 93.47C25.41 93.47 25.39 93.47 25.38 93.47C11.33 93.5 -0.109995 104.81 -0.119995 118.69C-0.119995 125.64 2.49 132.14 7.22 136.97C12 141.85 18.43 144.53 25.35 144.53C39.69 144.53 50.93 133.34 50.94 119.04ZM25.35 129.53C22.5 129.53 19.87 128.44 17.94 126.47C15.97 124.46 14.88 121.69 14.88 118.69C14.88 113.16 19.7 108.48 25.41 108.47C25.42 108.47 25.43 108.47 25.43 108.47C28.22 108.47 30.94 109.6 32.91 111.56C34.29 112.94 35.94 115.36 35.94 119.03C35.93 124.92 31.28 129.53 25.35 129.53Z" fill="#1D334B"/>
</g>
<defs>
<clipPath id="clip0_4789_39263">
<rect width="1220" height="238" fill="white"/>
</clipPath>
</defs>
</svg>
